<svg width="101" height="40" viewBox="0 0 101 40" fill="none" xmlns="http://www.w3.org/2000/svg">
<path d="M0 27.9167C0.987831 27.9167 1.71175 27.6969 4.24062 27.9167C6.7695 28.1365 7.40615 29.0036 9.10844 28.7083C10.8107 28.4131 11.8796 27.4965 12.9772 25.5417C14.0747 23.5868 15.1624 21.7928 16.7859 20C18.4095 18.2072 19.9002 18.184 21.1075 16.5638C22.3148 14.9435 22.3148 10.2053 24.1298 10.5C25.9447 10.7947 25.9759 21.3303 27.4365 22.375C28.897 23.4197 29.7414 20 31.0111 21.5833C32.2807 23.1667 32.0011 39 33.7859 39C35.5708 39 35.6399 28.4427 37.4896 27.9167C39.3392 27.3906 40.6373 36.294 42.1365 36.625C43.6357 36.956 44.2855 32.6667 46.5545 32.6667C48.8235 32.6667 50.4237 39 51.635 39C52.8462 39 52.4698 37.4085 53.5202 33.4583C54.5705 29.5081 54.1657 28.3486 55.2136 25.5417C56.2614 22.7347 57.7026 22.375 58.544 20C59.3855 17.625 59.6958 12.1858 60.4315 10.5C61.1672 8.81423 63.1637 9.04153 64.072 7.33333C64.9803 5.62514 64.0994 1 65.5452 1C66.9909 1 68.386 7.33333 69.7769 7.33333C71.1678 7.33333 72.5931 5.61636 74.0657 7.33333C75.5383 9.05031 75.4687 15.9659 76.4189 18.1658C77.3691 20.3658 78.8046 20.5356 80.5627 22.375C82.3208 24.2144 83.0109 27.3757 83.9989 27.9167C84.9869 28.4576 85.9789 26.6822 87.7927 26.3333C89.6064 25.9845 91.1116 27.0698 92.2315 26.3333C93.3513 25.5969 94.409 16.1393 95.5118 13.6667C96.6147 11.1941 97.7705 10.5 99.9997 8.91667" stroke="#2DA262" stroke-width="2" stroke-linejoin="round"/>
</svg>
