<svg width="20" height="32" viewBox="0 0 20 32" fill="none" xmlns="http://www.w3.org/2000/svg">
<path fill-rule="evenodd" clip-rule="evenodd" d="M12.7918 31.2135C14.3411 28.9224 14.4839 26.4478 13.2201 23.7897C12.8687 25.2158 12.2258 26.0812 11.2915 26.3863C12.1591 23.9084 11.4341 21.2313 9.11639 18.3551C9.06637 21.3257 8.35249 23.4897 6.9747 24.847C5.07667 26.715 5.09901 28.8232 7.04164 31.1716C-1.02258 26.8801 -2.1603 21.1243 3.62835 13.9044C3.98739 15.6486 4.85742 16.7194 6.23855 17.1169C4.73309 10.7284 6.31706 5.285 10.9904 0.786621C11.0191 10.7695 14.0804 11.6568 17.9508 16.113C22.1298 21.4605 19.674 27.6318 12.7918 31.2135Z" fill="url(#paint0_linear_353_79547)"/>
<defs>
<linearGradient id="paint0_linear_353_79547" x1="19.3412" y1="9.13747" x2="1.53827" y2="26.9404" gradientUnits="userSpaceOnUse">
<stop stop-color="#EF3E3D"/>
<stop offset="1" stop-color="#FFC828"/>
</linearGradient>
</defs>
</svg>
