<svg width="180" height="28" viewBox="0 0 180 28" fill="none" xmlns="http://www.w3.org/2000/svg">
<path d="M9.14197 0.118143H20.9114L17.204 4.84388H5.4346L9.14197 0.118143Z" fill="white"/>
<path d="M0 4.84388V26.1688L4.66667 22.8608V4.84388L8.38819 0.118143L0 4.84388Z" fill="white"/>
<path d="M0 1.00422L1.94937 0H7.44304L0 4.19409V1.00422Z" fill="#0077ED"/>
<path d="M20.4979 28H1.35865L0 26.6413L4.66667 23.2743H17.308L20.4979 28Z" fill="white"/>
<path d="M0 20.4388L4.66667 22.8608L0 26.2278V20.4388Z" fill="#013870" fill-opacity="0.16"/>
<path d="M20.9114 0.118143H13.7046L17.1899 4.84388L20.9114 0.118143Z" fill="#013870" fill-opacity="0.16"/>
<path d="M33.5174 20.86C32.2814 20.86 31.2134 20.596 30.3134 20.068C29.4254 19.528 28.7474 18.796 28.2794 17.872C27.8114 16.948 27.5774 15.904 27.5774 14.74C27.5774 13.54 27.8354 12.448 28.3514 11.464C28.8674 10.468 29.5754 9.688 30.4754 9.124C31.3874 8.548 32.4014 8.26 33.5174 8.26C34.5734 8.26 35.4554 8.398 36.1634 8.674C36.8714 8.938 37.4114 9.286 37.7834 9.718C37.9994 9.994 38.1314 10.336 38.1794 10.744C38.2274 11.152 38.2514 11.722 38.2514 12.454H37.7114C37.4834 11.35 37.0634 10.51 36.4514 9.934C35.8394 9.358 35.0414 9.07 34.0574 9.07C32.8334 9.07 31.8674 9.502 31.1594 10.366C30.4514 11.23 30.0974 12.688 30.0974 14.74C30.0974 16.264 30.4214 17.53 31.0694 18.538C31.7174 19.546 32.7134 20.05 34.0574 20.05C34.8974 20.05 35.6654 19.828 36.3614 19.384C37.0694 18.94 37.6394 18.304 38.0714 17.476L38.7014 17.962C38.1254 18.97 37.4294 19.708 36.6134 20.176C35.7974 20.632 34.7654 20.86 33.5174 20.86ZM45.7342 20.86C44.5702 20.86 43.5322 20.584 42.6202 20.032C41.7202 19.48 41.0242 18.724 40.5322 17.764C40.0402 16.804 39.7942 15.736 39.7942 14.56C39.7942 13.384 40.0402 12.316 40.5322 11.356C41.0242 10.396 41.7202 9.64 42.6202 9.088C43.5322 8.536 44.5702 8.26 45.7342 8.26C46.8982 8.26 47.9302 8.536 48.8302 9.088C49.7302 9.64 50.4262 10.396 50.9182 11.356C51.4102 12.316 51.6562 13.384 51.6562 14.56C51.6562 15.736 51.4102 16.804 50.9182 17.764C50.4262 18.724 49.7302 19.48 48.8302 20.032C47.9302 20.584 46.8982 20.86 45.7342 20.86ZM45.7342 20.05C46.8262 20.05 47.6722 19.576 48.2722 18.628C48.8722 17.668 49.1722 16.312 49.1722 14.56C49.1722 12.808 48.8722 11.458 48.2722 10.51C47.6722 9.55 46.8262 9.07 45.7342 9.07C44.6422 9.07 43.7962 9.55 43.1962 10.51C42.6082 11.458 42.3142 12.808 42.3142 14.56C42.3142 16.312 42.6082 17.668 43.1962 18.628C43.7962 19.576 44.6422 20.05 45.7342 20.05ZM55.3713 20.5C54.9393 20.5 54.6093 20.434 54.3813 20.302C54.1533 20.158 53.9913 19.924 53.8953 19.6C53.7993 19.264 53.7513 18.784 53.7513 18.16V8.62H56.0913V18.16C56.0913 18.772 56.1753 19.228 56.3433 19.528C56.5113 19.816 56.8473 19.96 57.3513 19.96H57.5313V20.5H55.3713ZM60.4601 11.59V20.5H59.5601V10.78C59.5601 10.276 59.4341 9.88 59.1821 9.592C58.9421 9.304 58.5281 9.16 57.9401 9.16H57.8501V8.62H59.1101C59.7821 8.62 60.3281 8.71 60.7481 8.89C61.1801 9.058 61.5401 9.328 61.8281 9.7L68.0201 16.9V8.62H68.9201V20.554H68.0921L60.4601 11.59ZM76.865 20.86C75.629 20.86 74.561 20.596 73.661 20.068C72.773 19.528 72.095 18.796 71.627 17.872C71.159 16.948 70.925 15.904 70.925 14.74C70.925 13.54 71.183 12.448 71.699 11.464C72.215 10.468 72.923 9.688 73.823 9.124C74.735 8.548 75.749 8.26 76.865 8.26C77.921 8.26 78.803 8.398 79.511 8.674C80.219 8.938 80.759 9.286 81.131 9.718C81.347 9.994 81.479 10.336 81.527 10.744C81.575 11.152 81.599 11.722 81.599 12.454H81.059C80.831 11.35 80.411 10.51 79.799 9.934C79.187 9.358 78.389 9.07 77.405 9.07C76.181 9.07 75.215 9.502 74.507 10.366C73.799 11.23 73.445 12.688 73.445 14.74C73.445 16.264 73.769 17.53 74.417 18.538C75.065 19.546 76.061 20.05 77.405 20.05C78.245 20.05 79.013 19.828 79.709 19.384C80.417 18.94 80.987 18.304 81.419 17.476L82.049 17.962C81.473 18.97 80.777 19.708 79.961 20.176C79.145 20.632 78.113 20.86 76.865 20.86ZM93.7798 20.572C93.0238 20.572 92.3398 20.416 91.7278 20.104C91.1158 19.78 90.6178 19.156 90.2338 18.232L89.8198 17.224H85.0318L83.5558 20.5H82.6198L87.9298 8.62H88.7398L92.7718 18.232C93.2278 19.348 93.8518 19.948 94.6438 20.032V20.482C94.4278 20.542 94.1398 20.572 93.7798 20.572ZM85.4098 16.414H89.4778L87.4978 11.716L85.4098 16.414ZM95.8401 10.96C95.8401 10.348 95.7561 9.898 95.5881 9.61C95.4201 9.31 95.0841 9.16 94.5801 9.16H94.4001V8.62H99.3501C100.586 8.62 101.702 8.866 102.698 9.358C103.706 9.838 104.21 10.798 104.21 12.238C104.21 13.174 103.946 13.9 103.418 14.416C102.902 14.932 102.32 15.274 101.672 15.442C101.024 15.61 100.43 15.694 99.8901 15.694H98.1801V20.5H95.8401V10.96ZM99.2601 14.974C99.9681 14.974 100.55 14.758 101.006 14.326C101.462 13.894 101.69 13.168 101.69 12.148C101.69 11.14 101.462 10.42 101.006 9.988C100.562 9.556 100.01 9.34 99.3501 9.34C99.0021 9.34 98.7321 9.364 98.5401 9.412L98.1801 9.466V14.974H99.2601ZM104.988 20.752C104.64 20.752 104.37 20.656 104.178 20.464C103.986 20.26 103.89 19.99 103.89 19.654C103.89 19.318 103.986 19.054 104.178 18.862C104.37 18.658 104.64 18.556 104.988 18.556C105.336 18.556 105.606 18.658 105.798 18.862C105.99 19.054 106.086 19.318 106.086 19.654C106.086 19.99 105.99 20.26 105.798 20.464C105.606 20.656 105.336 20.752 104.988 20.752ZM122.243 21.31C120.947 21.31 120.011 21.01 119.435 20.41C118.871 19.798 118.589 18.808 118.589 17.44V11.068L114.647 20.5H114.053L109.229 10.708V20.5H108.329V8.62H110.525L114.881 17.458L118.571 8.62H120.929V17.44C120.929 18.568 121.025 19.396 121.217 19.924C121.409 20.452 121.751 20.764 122.243 20.86V21.31ZM133.911 20.572C133.155 20.572 132.471 20.416 131.859 20.104C131.247 19.78 130.749 19.156 130.365 18.232L129.951 17.224H125.163L123.687 20.5H122.751L128.061 8.62H128.871L132.903 18.232C133.359 19.348 133.983 19.948 134.775 20.032V20.482C134.559 20.542 134.271 20.572 133.911 20.572ZM125.541 16.414H129.609L127.629 11.716L125.541 16.414ZM144.341 20.68C143.681 20.68 143.081 20.488 142.541 20.104C142.001 19.708 141.437 19.03 140.849 18.07L139.049 15.064H138.329V20.5H135.971V10.96C135.971 10.348 135.887 9.898 135.719 9.61C135.551 9.31 135.215 9.16 134.711 9.16H134.531V8.62H139.499C140.747 8.62 141.869 8.848 142.865 9.304C143.861 9.76 144.359 10.636 144.359 11.932C144.359 13.432 143.387 14.428 141.443 14.92L143.333 18.07C144.041 19.258 144.785 19.918 145.565 20.05V20.5C145.469 20.548 145.295 20.59 145.043 20.626C144.791 20.662 144.557 20.68 144.341 20.68ZM139.409 14.344C140.081 14.344 140.651 14.146 141.119 13.75C141.599 13.342 141.839 12.706 141.839 11.842C141.839 10.99 141.605 10.36 141.137 9.952C140.669 9.544 140.123 9.34 139.499 9.34C139.151 9.34 138.881 9.364 138.689 9.412L138.329 9.466V14.344H139.409ZM156.711 20.68C155.955 20.68 155.229 20.53 154.533 20.23C153.849 19.918 153.111 19.348 152.319 18.52L149.421 15.496V20.5H147.081L147.063 10.96C147.063 10.348 146.979 9.898 146.811 9.61C146.643 9.31 146.307 9.16 145.803 9.16H145.623V8.62H147.783C148.203 8.62 148.527 8.692 148.755 8.836C148.995 8.98 149.163 9.22 149.259 9.556C149.367 9.892 149.421 10.36 149.421 10.96V14.38L152.535 10.51C152.979 9.934 153.453 9.478 153.957 9.142C154.473 8.794 155.061 8.62 155.721 8.62H156.981V9.25C156.237 9.25 155.595 9.346 155.055 9.538C154.527 9.718 154.071 10.048 153.687 10.528L151.005 13.84L155.163 18.16C155.607 18.652 156.105 19.084 156.657 19.456C157.221 19.816 157.677 20.02 158.025 20.068V20.5C157.665 20.62 157.227 20.68 156.711 20.68ZM159.543 10.96C159.543 10.348 159.459 9.898 159.291 9.61C159.123 9.31 158.787 9.16 158.283 9.16H158.103V8.62H166.041C167.061 8.62 167.571 9.1 167.571 10.06V11.59H167.031C167.031 10.846 166.839 10.3 166.455 9.952C166.083 9.604 165.525 9.43 164.781 9.43H161.883V13.93H166.563V14.74H161.883V19.69H164.961C165.645 19.69 166.215 19.54 166.671 19.24C167.127 18.928 167.505 18.394 167.805 17.638L168.291 17.818L167.769 19.24C167.613 19.672 167.427 19.99 167.211 20.194C166.995 20.398 166.659 20.5 166.203 20.5H159.543V10.96ZM172.802 9.43H171.524C170.852 9.43 170.336 9.598 169.976 9.934C169.628 10.27 169.454 10.822 169.454 11.59H168.914V10.06C168.914 9.1 169.424 8.62 170.444 8.62H178.904V9.43H175.142V20.5H172.802V9.43Z" fill="white"/>
</svg>
