<svg width="161" height="28" viewBox="0 0 161 28" fill="none" xmlns="http://www.w3.org/2000/svg">
<path d="M30.7834 19.5451C29.6847 19.5451 28.7354 19.3104 27.9354 18.8411C27.146 18.3611 26.5434 17.7104 26.1274 16.8891C25.7114 16.0678 25.5034 15.1398 25.5034 14.1051C25.5034 13.0384 25.7327 12.0678 26.1914 11.1931C26.65 10.3078 27.2794 9.61443 28.0794 9.1131C28.89 8.6011 29.7914 8.3451 30.7834 8.3451C31.722 8.3451 32.506 8.46776 33.1354 8.7131C33.7647 8.94776 34.2447 9.2571 34.5754 9.6411C34.7674 9.88643 34.8847 10.1904 34.9274 10.5531C34.97 10.9158 34.9914 11.4224 34.9914 12.0731H34.5114C34.3087 11.0918 33.9354 10.3451 33.3914 9.8331C32.8474 9.3211 32.138 9.0651 31.2634 9.0651C30.1754 9.0651 29.3167 9.4491 28.6874 10.2171C28.058 10.9851 27.7434 12.2811 27.7434 14.1051C27.7434 15.4598 28.0314 16.5851 28.6074 17.4811C29.1834 18.3771 30.0687 18.8251 31.2634 18.8251C32.01 18.8251 32.6927 18.6278 33.3114 18.2331C33.9407 17.8384 34.4474 17.2731 34.8314 16.5371L35.3914 16.9691C34.8794 17.8651 34.2607 18.5211 33.5354 18.9371C32.81 19.3424 31.8927 19.5451 30.7834 19.5451ZM41.6428 19.5451C40.6081 19.5451 39.6854 19.2998 38.8748 18.8091C38.0748 18.3184 37.4561 17.6464 37.0188 16.7931C36.5814 15.9398 36.3628 14.9904 36.3628 13.9451C36.3628 12.8998 36.5814 11.9504 37.0188 11.0971C37.4561 10.2438 38.0748 9.57176 38.8748 9.0811C39.6854 8.59043 40.6081 8.3451 41.6428 8.3451C42.6774 8.3451 43.5948 8.59043 44.3948 9.0811C45.1948 9.57176 45.8134 10.2438 46.2508 11.0971C46.6881 11.9504 46.9068 12.8998 46.9068 13.9451C46.9068 14.9904 46.6881 15.9398 46.2508 16.7931C45.8134 17.6464 45.1948 18.3184 44.3948 18.8091C43.5948 19.2998 42.6774 19.5451 41.6428 19.5451ZM41.6428 18.8251C42.6134 18.8251 43.3654 18.4038 43.8988 17.5611C44.4321 16.7078 44.6988 15.5024 44.6988 13.9451C44.6988 12.3878 44.4321 11.1878 43.8988 10.3451C43.3654 9.49176 42.6134 9.0651 41.6428 9.0651C40.6721 9.0651 39.9201 9.49176 39.3868 10.3451C38.8641 11.1878 38.6028 12.3878 38.6028 13.9451C38.6028 15.5024 38.8641 16.7078 39.3868 17.5611C39.9201 18.4038 40.6721 18.8251 41.6428 18.8251ZM50.2091 19.2251C49.8251 19.2251 49.5318 19.1664 49.3291 19.0491C49.1265 18.9211 48.9825 18.7131 48.8971 18.4251C48.8118 18.1264 48.7691 17.6998 48.7691 17.1451V8.6651H50.8491V17.1451C50.8491 17.6891 50.9238 18.0944 51.0731 18.3611C51.2225 18.6171 51.5211 18.7451 51.9691 18.7451H52.1291V19.2251H50.2091ZM54.7325 11.3051V19.2251H53.9325V10.5851C53.9325 10.1371 53.8205 9.7851 53.5965 9.5291C53.3832 9.2731 53.0152 9.1451 52.4925 9.1451H52.4125V8.6651H53.5325C54.1298 8.6651 54.6152 8.7451 54.9885 8.9051C55.3725 9.05443 55.6925 9.29443 55.9485 9.6251L61.4525 16.0251V8.6651H62.2525V19.2731H61.5165L54.7325 11.3051ZM69.3146 19.5451C68.216 19.5451 67.2666 19.3104 66.4666 18.8411C65.6773 18.3611 65.0746 17.7104 64.6586 16.8891C64.2426 16.0678 64.0346 15.1398 64.0346 14.1051C64.0346 13.0384 64.264 12.0678 64.7226 11.1931C65.1813 10.3078 65.8106 9.61443 66.6106 9.1131C67.4213 8.6011 68.3226 8.3451 69.3146 8.3451C70.2533 8.3451 71.0373 8.46776 71.6666 8.7131C72.296 8.94776 72.776 9.2571 73.1066 9.6411C73.2986 9.88643 73.416 10.1904 73.4586 10.5531C73.5013 10.9158 73.5226 11.4224 73.5226 12.0731H73.0426C72.84 11.0918 72.4666 10.3451 71.9226 9.8331C71.3786 9.3211 70.6693 9.0651 69.7946 9.0651C68.7066 9.0651 67.848 9.4491 67.2186 10.2171C66.5893 10.9851 66.2746 12.2811 66.2746 14.1051C66.2746 15.4598 66.5626 16.5851 67.1386 17.4811C67.7146 18.3771 68.6 18.8251 69.7946 18.8251C70.5413 18.8251 71.224 18.6278 71.8426 18.2331C72.472 17.8384 72.9786 17.2731 73.3626 16.5371L73.9226 16.9691C73.4106 17.8651 72.792 18.5211 72.0666 18.9371C71.3413 19.3424 70.424 19.5451 69.3146 19.5451ZM84.35 19.2891C83.678 19.2891 83.07 19.1504 82.526 18.8731C81.982 18.5851 81.5393 18.0304 81.198 17.2091L80.83 16.3131H76.574L75.262 19.2251H74.43L79.15 8.6651H79.87L83.454 17.2091C83.8593 18.2011 84.414 18.7344 85.118 18.8091V19.2091C84.926 19.2624 84.67 19.2891 84.35 19.2891ZM76.91 15.5931H80.526L78.766 11.4171L76.91 15.5931ZM86.1814 10.7451C86.1814 10.2011 86.1067 9.8011 85.9574 9.5451C85.808 9.27843 85.5094 9.1451 85.0614 9.1451H84.9014V8.6651H89.3014C90.4 8.6651 91.392 8.88376 92.2774 9.3211C93.1734 9.74776 93.6214 10.6011 93.6214 11.8811C93.6214 12.7131 93.3867 13.3584 92.9174 13.8171C92.4587 14.2758 91.9414 14.5798 91.3654 14.7291C90.7894 14.8784 90.2614 14.9531 89.7814 14.9531H88.2614V19.2251H86.1814V10.7451ZM89.2214 14.3131C89.8507 14.3131 90.368 14.1211 90.7734 13.7371C91.1787 13.3531 91.3814 12.7078 91.3814 11.8011C91.3814 10.9051 91.1787 10.2651 90.7734 9.8811C90.3787 9.4971 89.888 9.3051 89.3014 9.3051C88.992 9.3051 88.752 9.32643 88.5814 9.3691L88.2614 9.4171V14.3131H89.2214ZM94.3128 19.4491C94.0034 19.4491 93.7634 19.3638 93.5928 19.1931C93.4221 19.0118 93.3368 18.7718 93.3368 18.4731C93.3368 18.1744 93.4221 17.9398 93.5928 17.7691C93.7634 17.5878 94.0034 17.4971 94.3128 17.4971C94.6221 17.4971 94.8621 17.5878 95.0328 17.7691C95.2034 17.9398 95.2888 18.1744 95.2888 18.4731C95.2888 18.7718 95.2034 19.0118 95.0328 19.1931C94.8621 19.3638 94.6221 19.4491 94.3128 19.4491Z" fill="black"/>
<path d="M109.651 19.9451C108.499 19.9451 107.667 19.6784 107.155 19.1451C106.654 18.6011 106.403 17.7211 106.403 16.5051V10.8411L102.899 19.2251H102.371L98.0829 10.5211V19.2251H97.2829V8.6651H99.2349L103.107 16.5211L106.387 8.6651H108.483V16.5051C108.483 17.5078 108.568 18.2438 108.739 18.7131C108.91 19.1824 109.214 19.4598 109.651 19.5451V19.9451ZM120.022 19.2891C119.35 19.2891 118.742 19.1504 118.198 18.8731C117.654 18.5851 117.211 18.0304 116.87 17.2091L116.502 16.3131H112.246L110.934 19.2251H110.102L114.822 8.6651H115.542L119.126 17.2091C119.531 18.2011 120.086 18.7344 120.79 18.8091V19.2091C120.598 19.2624 120.342 19.2891 120.022 19.2891ZM112.582 15.5931H116.198L114.438 11.4171L112.582 15.5931ZM129.293 19.3851C128.707 19.3851 128.173 19.2144 127.693 18.8731C127.213 18.5211 126.712 17.9184 126.189 17.0651L124.589 14.3931H123.949V19.2251H121.853V10.7451C121.853 10.2011 121.779 9.8011 121.629 9.5451C121.48 9.27843 121.181 9.1451 120.733 9.1451H120.573V8.6651H124.989C126.099 8.6651 127.096 8.86776 127.981 9.2731C128.867 9.67843 129.309 10.4571 129.309 11.6091C129.309 12.9424 128.445 13.8278 126.717 14.2651L128.397 17.0651C129.027 18.1211 129.688 18.7078 130.381 18.8251V19.2251C130.296 19.2678 130.141 19.3051 129.917 19.3371C129.693 19.3691 129.485 19.3851 129.293 19.3851ZM124.909 13.7531C125.507 13.7531 126.013 13.5771 126.429 13.2251C126.856 12.8624 127.069 12.2971 127.069 11.5291C127.069 10.7718 126.861 10.2118 126.445 9.8491C126.029 9.48643 125.544 9.3051 124.989 9.3051C124.68 9.3051 124.44 9.32643 124.269 9.3691L123.949 9.4171V13.7531H124.909ZM140.289 19.3851C139.617 19.3851 138.971 19.2518 138.353 18.9851C137.745 18.7078 137.089 18.2011 136.385 17.4651L133.809 14.7771V19.2251H131.729L131.713 10.7451C131.713 10.2011 131.638 9.8011 131.489 9.5451C131.339 9.27843 131.041 9.1451 130.593 9.1451H130.433V8.6651H132.353C132.726 8.6651 133.014 8.7291 133.217 8.8571C133.43 8.9851 133.579 9.19843 133.665 9.4971C133.761 9.79576 133.809 10.2118 133.809 10.7451V13.7851L136.577 10.3451C136.971 9.8331 137.393 9.42776 137.841 9.1291C138.299 8.81976 138.822 8.6651 139.409 8.6651H140.529V9.2251C139.867 9.2251 139.297 9.31043 138.817 9.4811C138.347 9.6411 137.942 9.93443 137.601 10.3611L135.217 13.3051L138.913 17.1451C139.307 17.5824 139.75 17.9664 140.241 18.2971C140.742 18.6171 141.147 18.7984 141.457 18.8411V19.2251C141.137 19.3318 140.747 19.3851 140.289 19.3851ZM142.806 10.7451C142.806 10.2011 142.732 9.8011 142.582 9.5451C142.433 9.27843 142.134 9.1451 141.686 9.1451H141.526V8.6651H148.582C149.489 8.6651 149.942 9.09176 149.942 9.9451V11.3051H149.462C149.462 10.6438 149.292 10.1584 148.95 9.8491C148.62 9.53976 148.124 9.3851 147.462 9.3851H144.886V13.3851H149.046V14.1051H144.886V18.5051H147.622C148.23 18.5051 148.737 18.3718 149.142 18.1051C149.548 17.8278 149.884 17.3531 150.15 16.6811L150.582 16.8411L150.118 18.1051C149.98 18.4891 149.814 18.7718 149.622 18.9531C149.43 19.1344 149.132 19.2251 148.726 19.2251H142.806V10.7451ZM154.592 9.3851H153.456C152.859 9.3851 152.4 9.53443 152.08 9.8331C151.771 10.1318 151.616 10.6224 151.616 11.3051H151.136V9.9451C151.136 9.09176 151.589 8.6651 152.496 8.6651H160.016V9.3851H156.672V19.2251H154.592V9.3851Z" fill="#00359E"/>
<path d="M9.14197 0.118143H20.9114L17.204 4.84388H5.4346L9.14197 0.118143Z" fill="#00359E"/>
<path d="M0 4.84388V26.1688L4.66667 22.8608V4.84388L8.38819 0.118143L0 4.84388Z" fill="#00359E"/>
<path d="M0 1.00422L1.94937 0H7.44304L0 4.19409V1.00422Z" fill="#141416"/>
<path d="M20.4979 28H1.35865L0 26.6413L4.66667 23.2743H17.308L20.4979 28Z" fill="#00359E"/>
<path d="M0 20.4388L4.66667 22.8608L0 26.2278V20.4388Z" fill="#013870" fill-opacity="0.16"/>
<path d="M20.9114 0.118143H13.7046L17.1899 4.84388L20.9114 0.118143Z" fill="#013870" fill-opacity="0.16"/>
</svg>
